<svg xmlns="http://www.w3.org/2000/svg" viewBox="0 0 512 512" width="512" height="512">
  <defs>
    <!-- Main gradient - deep indigo to purple -->
    <linearGradient id="bg" x1="0%" y1="0%" x2="100%" y2="100%">
      <stop offset="0%" stop-color="#6366f1"/>
      <stop offset="50%" stop-color="#4f46e5"/>
      <stop offset="100%" stop-color="#3730a3"/>
    </linearGradient>

    <!-- 3D top face highlight -->
    <linearGradient id="topFace" x1="0%" y1="0%" x2="100%" y2="100%">
      <stop offset="0%" stop-color="#818cf8"/>
      <stop offset="100%" stop-color="#6366f1"/>
    </linearGradient>

    <!-- 3D side shadow -->
    <linearGradient id="sideFace" x1="0%" y1="0%" x2="100%" y2="100%">
      <stop offset="0%" stop-color="#3730a3"/>
      <stop offset="100%" stop-color="#1e1b4b"/>
    </linearGradient>

    <!-- Letter gradient -->
    <linearGradient id="letterGrad" x1="0%" y1="0%" x2="0%" y2="100%">
      <stop offset="0%" stop-color="#ffffff"/>
      <stop offset="100%" stop-color="#e0e7ff"/>
    </linearGradient>

    <!-- Glow effect -->
    <filter id="glow">
      <feGaussianBlur stdDeviation="8" result="blur"/>
      <feMerge>
        <feMergeNode in="blur"/>
        <feMergeNode in="SourceGraphic"/>
      </feMerge>
    </filter>

    <!-- Inner shadow for depth -->
    <filter id="innerShadow">
      <feOffset dx="0" dy="4"/>
      <feGaussianBlur stdDeviation="4"/>
      <feComposite in2="SourceAlpha" operator="arithmetic" k2="-1" k3="1"/>
      <feColorMatrix values="0 0 0 0 0  0 0 0 0 0  0 0 0 0 0  0 0 0 0.4 0"/>
      <feBlend in2="SourceGraphic" mode="normal"/>
    </filter>

    <!-- Drop shadow -->
    <filter id="dropShadow">
      <feDropShadow dx="0" dy="6" stdDeviation="12" flood-color="#1e1b4b" flood-opacity="0.5"/>
    </filter>

    <!-- Shine overlay -->
    <linearGradient id="shine" x1="0%" y1="0%" x2="100%" y2="100%">
      <stop offset="0%" stop-color="#ffffff" stop-opacity="0.3"/>
      <stop offset="40%" stop-color="#ffffff" stop-opacity="0.05"/>
      <stop offset="100%" stop-color="#ffffff" stop-opacity="0"/>
    </linearGradient>
  </defs>

  <!-- 3D base shadow -->
  <rect x="28" y="28" width="456" height="456" rx="96" fill="#1e1b4b" opacity="0.4" transform="translate(8, 12)"/>

  <!-- 3D side face (bottom-right depth) -->
  <rect x="28" y="28" width="456" height="456" rx="96" fill="url(#sideFace)" transform="translate(4, 6)"/>

  <!-- Main rounded square -->
  <rect x="28" y="28" width="456" height="456" rx="96" fill="url(#bg)" filter="url(#dropShadow)"/>

  <!-- Top-left highlight edge for 3D effect -->
  <rect x="28" y="28" width="456" height="456" rx="96" fill="url(#topFace)" opacity="0.3" mask="url(#topMask)"/>

  <!-- Subtle grid/tech pattern -->
  <g opacity="0.06">
    <line x1="156" y1="28" x2="156" y2="484" stroke="white" stroke-width="1"/>
    <line x1="256" y1="28" x2="256" y2="484" stroke="white" stroke-width="1"/>
    <line x1="356" y1="28" x2="356" y2="484" stroke="white" stroke-width="1"/>
    <line x1="28" y1="156" x2="484" y2="156" stroke="white" stroke-width="1"/>
    <line x1="28" y1="256" x2="484" y2="256" stroke="white" stroke-width="1"/>
    <line x1="28" y1="356" x2="484" y2="356" stroke="white" stroke-width="1"/>
  </g>

  <!-- "A" letter with 3D depth -->
  <!-- Shadow of letter -->
  <g transform="translate(4, 6)" opacity="0.3">
    <path d="M256 108 L370 404 L330 404 L304 336 L208 336 L182 404 L142 404 Z M256 168 L220 312 L292 312 Z" fill="#1e1b4b"/>
  </g>

  <!-- Main "A" letter -->
  <g filter="url(#innerShadow)">
    <path d="M256 108 L370 404 L330 404 L304 336 L208 336 L182 404 L142 404 Z M256 168 L220 312 L292 312 Z" fill="url(#letterGrad)"/>
  </g>

  <!-- Small glowing dot accent (like a tech/AI indicator) -->
  <circle cx="256" cy="240" r="6" fill="#a5b4fc" filter="url(#glow)" opacity="0.9"/>

  <!-- Shine overlay for glass effect -->
  <rect x="28" y="28" width="456" height="228" rx="96" fill="url(#shine)" opacity="0.6"/>

  <!-- Subtle border -->
  <rect x="28" y="28" width="456" height="456" rx="96" fill="none" stroke="white" stroke-opacity="0.15" stroke-width="2"/>
</svg>
